# xmcd CD database file
#
# Track frame offsets:
#	150
#	13091
#	25143
#	46571
#	59188
#	72027
#	83900
#	97403
#	115111
#	125688
#	142817
#
# Disc length: 2044 seconds
#
# Revision: 0
# Processed by: cddbd v1.5.2PL0 Copyright (c) Steve Scherf et al.
# Submitted via: CDex 1.70beta2
#
DISCID=9507fa0b
DTITLE=Roos, Jason - Cdn. - OVM - ON - Country Way of Life
DYEAR=2009
DGENRE=Country
TTITLE0=Country Way of Life
TTITLE1=My Pride's Doin' the Walkin'
TTITLE2=Holding Anyone But You
TTITLE3=Fire in the Hole
TTITLE4=Music Man
TTITLE5=Royal Crown
TTITLE6=Let's Chase Each Other Around the Room Tonight
TTITLE7=I Can't Live With Her Memory
TTITLE8=Thanks Daddy
TTITLE9=I Never Go Around Mirrors
TTITLE10=A Big Full Moon and a Patsy Cline Tune
EXTD=YEAR: 2009
EXTT0=
EXTT1=
EXTT2=
EXTT3=
EXTT4=
EXTT5=
EXTT6=
EXTT7=
EXTT8=
EXTT9=
EXTT10=
PLAYORDER=
